<svg width="485" height="54" viewBox="0 0 485 54" fill="none" xmlns="http://www.w3.org/2000/svg">
<rect x="0.5" y="1.00024" width="484" height="52" rx="4.5" fill="#0266F4" fill-opacity="0.1" stroke="#0266F4" stroke-dasharray="3 3"/>
<path d="M45.5518 20.7322H48.1797C49.3392 20.7322 50.2109 20.9057 50.7949 21.2527C51.3789 21.5997 51.6709 22.19 51.6709 23.0237C51.6709 23.3834 51.6011 23.7071 51.4614 23.9949C51.326 24.2784 51.1271 24.5133 50.8647 24.6995C50.6024 24.8857 50.2786 25.0147 49.8936 25.0867V25.1501C50.2998 25.2136 50.6595 25.33 50.9727 25.4993C51.2858 25.6685 51.5312 25.9055 51.709 26.2102C51.8867 26.5149 51.9756 26.9021 51.9756 27.3718C51.9756 27.9431 51.8423 28.4255 51.5757 28.8191C51.3133 29.2126 50.9409 29.511 50.4585 29.7141C49.9761 29.913 49.4048 30.0125 48.7446 30.0125H45.5518V20.7322ZM46.6309 24.7122H48.4082C49.2165 24.7122 49.7751 24.5789 50.084 24.3123C50.3971 24.0457 50.5537 23.6563 50.5537 23.1443C50.5537 22.6153 50.3675 22.2345 49.9951 22.0017C49.627 21.769 49.0387 21.6526 48.2305 21.6526H46.6309V24.7122ZM46.6309 25.6199V29.092H48.5605C49.3857 29.092 49.9697 28.9312 50.3125 28.6096C50.6553 28.2838 50.8267 27.8458 50.8267 27.2957C50.8267 26.9444 50.7484 26.644 50.5918 26.3943C50.4395 26.1446 50.1898 25.9542 49.8428 25.823C49.5 25.6876 49.0409 25.6199 48.4653 25.6199H46.6309ZM56.9585 22.9285C57.0981 22.9285 57.2441 22.9369 57.3965 22.9539C57.5488 22.9666 57.6842 22.9856 57.8027 23.011L57.6694 23.9885C57.5552 23.9589 57.4282 23.9356 57.2886 23.9187C57.1489 23.9018 57.0177 23.8933 56.895 23.8933C56.6157 23.8933 56.3512 23.9504 56.1016 24.0647C55.8561 24.1747 55.6403 24.3355 55.4541 24.5471C55.2679 24.7545 55.1219 25.0063 55.0161 25.3025C54.9103 25.5945 54.8574 25.9203 54.8574 26.28V30.0125H53.7974V23.0554H54.6733L54.7876 24.3376H54.832C54.9759 24.0795 55.1494 23.8446 55.3525 23.6331C55.5557 23.4172 55.7905 23.2458 56.0571 23.1189C56.328 22.9919 56.6284 22.9285 56.9585 22.9285ZM65.1152 26.5212C65.1152 27.0925 65.0412 27.6025 64.8931 28.051C64.745 28.4996 64.5312 28.8783 64.252 29.1873C63.9727 29.4962 63.6341 29.7332 63.2363 29.8982C62.8428 30.059 62.3963 30.1394 61.897 30.1394C61.4315 30.1394 61.0041 30.059 60.6147 29.8982C60.2297 29.7332 59.8953 29.4962 59.6118 29.1873C59.3325 28.8783 59.1146 28.4996 58.958 28.051C58.8057 27.6025 58.7295 27.0925 58.7295 26.5212C58.7295 25.7595 58.8586 25.1121 59.1167 24.5789C59.3748 24.0414 59.743 23.6331 60.2212 23.3538C60.7036 23.0702 61.277 22.9285 61.9414 22.9285C62.5762 22.9285 63.1305 23.0702 63.6045 23.3538C64.0827 23.6373 64.453 24.0478 64.7153 24.5852C64.9819 25.1184 65.1152 25.7638 65.1152 26.5212ZM59.8213 26.5212C59.8213 27.0798 59.8953 27.5644 60.0435 27.9749C60.1916 28.3853 60.4201 28.7027 60.729 28.927C61.0379 29.1513 61.4357 29.2634 61.9224 29.2634C62.4048 29.2634 62.8005 29.1513 63.1094 28.927C63.4225 28.7027 63.6532 28.3853 63.8013 27.9749C63.9494 27.5644 64.0234 27.0798 64.0234 26.5212C64.0234 25.9669 63.9494 25.4887 63.8013 25.0867C63.6532 24.6804 63.4246 24.3673 63.1157 24.1472C62.8068 23.9272 62.4069 23.8171 61.916 23.8171C61.1924 23.8171 60.6613 24.0562 60.3228 24.5344C59.9884 25.0126 59.8213 25.6749 59.8213 26.5212ZM72.5991 29.9998L71.3613 25.95C71.3063 25.7764 71.2534 25.6072 71.2026 25.4421C71.1561 25.2729 71.1117 25.1121 71.0693 24.9597C71.0312 24.8031 70.9953 24.6593 70.9614 24.5281C70.9318 24.3927 70.9064 24.2763 70.8853 24.179H70.8408C70.8239 24.2763 70.8006 24.3927 70.771 24.5281C70.7414 24.6593 70.7054 24.8031 70.6631 24.9597C70.625 25.1163 70.5827 25.2813 70.5361 25.4548C70.4896 25.6241 70.4367 25.7955 70.3774 25.969L69.0825 29.9998H67.8955L65.9785 23.0427H67.0703L68.0732 26.8831C68.141 27.137 68.2044 27.3888 68.2637 27.6384C68.3271 27.8839 68.38 28.1166 68.4224 28.3367C68.4689 28.5525 68.5028 28.7408 68.5239 28.9016H68.5747C68.6001 28.7958 68.6276 28.6689 68.6572 28.5208C68.6911 28.3726 68.7271 28.2161 68.7651 28.051C68.8075 27.8818 68.8519 27.7146 68.8984 27.5496C68.945 27.3803 68.9915 27.2216 69.0381 27.0735L70.3203 23.0427H71.4565L72.6943 27.0671C72.7578 27.2703 72.8192 27.4819 72.8784 27.7019C72.9419 27.922 72.999 28.1357 73.0498 28.343C73.1006 28.5461 73.1366 28.7281 73.1577 28.8889H73.2085C73.2254 28.745 73.2572 28.5673 73.3037 28.3557C73.3503 28.1441 73.4032 27.9114 73.4624 27.6575C73.5259 27.4036 73.5915 27.1454 73.6592 26.8831L74.6748 23.0427H75.7476L73.8242 29.9998H72.5991ZM81.5176 28.1082C81.5176 28.5525 81.4054 28.927 81.1812 29.2317C80.9611 29.5321 80.6437 29.7585 80.229 29.9109C79.8185 30.0632 79.3276 30.1394 78.7563 30.1394C78.2697 30.1394 77.8486 30.1013 77.4932 30.0251C77.1377 29.949 76.8267 29.8411 76.5601 29.7014V28.7302C76.8436 28.8699 77.1821 28.9968 77.5757 29.1111C77.9692 29.2253 78.3713 29.2825 78.7817 29.2825C79.3826 29.2825 79.8185 29.1851 80.0894 28.9905C80.3602 28.7958 80.4956 28.5313 80.4956 28.197C80.4956 28.0066 80.4406 27.8394 80.3306 27.6956C80.2248 27.5474 80.0449 27.4057 79.791 27.2703C79.5371 27.1306 79.1859 26.9783 78.7373 26.8132C78.293 26.644 77.9079 26.4768 77.582 26.3118C77.2604 26.1425 77.0107 25.9373 76.833 25.696C76.6595 25.4548 76.5728 25.1417 76.5728 24.7566C76.5728 24.1684 76.8097 23.7177 77.2837 23.4045C77.7619 23.0872 78.3882 22.9285 79.1626 22.9285C79.5815 22.9285 79.973 22.9708 80.3369 23.0554C80.7051 23.1358 81.0479 23.2458 81.3652 23.3855L81.0098 24.2297C80.722 24.107 80.4152 24.0033 80.0894 23.9187C79.7635 23.8341 79.4313 23.7917 79.0928 23.7917C78.6061 23.7917 78.2316 23.8722 77.9692 24.033C77.7111 24.1938 77.582 24.4138 77.582 24.6931C77.582 24.9089 77.6413 25.0867 77.7598 25.2263C77.8825 25.366 78.0771 25.4972 78.3438 25.6199C78.6104 25.7426 78.9616 25.8865 79.3975 26.0515C79.8333 26.2123 80.21 26.3795 80.5273 26.553C80.8447 26.7222 81.0881 26.9296 81.2573 27.175C81.4308 27.4163 81.5176 27.7273 81.5176 28.1082ZM85.8911 22.9285C86.4836 22.9285 86.9914 23.0597 87.4146 23.322C87.8377 23.5844 88.1615 23.9526 88.3857 24.4265C88.61 24.8962 88.7222 25.4464 88.7222 26.0769V26.7307H83.917C83.9297 27.5474 84.1328 28.1695 84.5264 28.5969C84.9199 29.0243 85.4743 29.238 86.1895 29.238C86.6296 29.238 87.0189 29.1978 87.3574 29.1174C87.696 29.037 88.0472 28.9185 88.4111 28.762V29.6887C88.0599 29.8453 87.7108 29.9596 87.3638 30.0315C87.021 30.1034 86.6147 30.1394 86.145 30.1394C85.4764 30.1394 84.8924 30.004 84.3931 29.7332C83.8979 29.4581 83.5129 29.0561 83.2378 28.5271C82.9627 27.9981 82.8252 27.3507 82.8252 26.5847C82.8252 25.8357 82.95 25.1882 83.1997 24.6423C83.4536 24.0922 83.8091 23.669 84.2661 23.3728C84.7274 23.0766 85.269 22.9285 85.8911 22.9285ZM85.8784 23.7917C85.3156 23.7917 84.867 23.9758 84.5327 24.344C84.1984 24.7122 83.9995 25.2263 83.936 25.8865H87.6177C87.6134 25.4718 87.5479 25.1078 87.4209 24.7947C87.2982 24.4773 87.1099 24.2319 86.856 24.0583C86.6021 23.8806 86.2762 23.7917 85.8784 23.7917ZM96.9868 23.8806H95.2539V30.0125H94.2002V23.8806H92.9688V23.3728L94.2002 23.0237V22.5603C94.2002 21.9763 94.2869 21.5024 94.4604 21.1384C94.634 20.7703 94.8857 20.4994 95.2158 20.3259C95.5459 20.1524 95.9479 20.0657 96.4219 20.0657C96.6885 20.0657 96.9318 20.0889 97.1519 20.1355C97.3761 20.182 97.5729 20.2349 97.7422 20.2942L97.4692 21.1257C97.3254 21.0792 97.1624 21.0369 96.9805 20.9988C96.8027 20.9565 96.6208 20.9353 96.4346 20.9353C96.0326 20.9353 95.7342 21.0665 95.5396 21.3289C95.3491 21.587 95.2539 21.9932 95.2539 22.5476V23.0554H96.9868V23.8806ZM99.3164 23.0554V30.0125H98.2627V23.0554H99.3164ZM98.8022 20.4529C98.9757 20.4529 99.1239 20.51 99.2466 20.6243C99.3735 20.7343 99.437 20.9078 99.437 21.1448C99.437 21.3775 99.3735 21.551 99.2466 21.6653C99.1239 21.7795 98.9757 21.8367 98.8022 21.8367C98.6203 21.8367 98.4679 21.7795 98.3452 21.6653C98.2267 21.551 98.1675 21.3775 98.1675 21.1448C98.1675 20.9078 98.2267 20.7343 98.3452 20.6243C98.4679 20.51 98.6203 20.4529 98.8022 20.4529ZM102.604 30.0125H101.544V20.1355H102.604V30.0125ZM107.511 22.9285C108.104 22.9285 108.611 23.0597 109.035 23.322C109.458 23.5844 109.782 23.9526 110.006 24.4265C110.23 24.8962 110.342 25.4464 110.342 26.0769V26.7307H105.537C105.55 27.5474 105.753 28.1695 106.146 28.5969C106.54 29.0243 107.094 29.238 107.81 29.238C108.25 29.238 108.639 29.1978 108.978 29.1174C109.316 29.037 109.667 28.9185 110.031 28.762V29.6887C109.68 29.8453 109.331 29.9596 108.984 30.0315C108.641 30.1034 108.235 30.1394 107.765 30.1394C107.097 30.1394 106.513 30.004 106.013 29.7332C105.518 29.4581 105.133 29.0561 104.858 28.5271C104.583 27.9981 104.445 27.3507 104.445 26.5847C104.445 25.8357 104.57 25.1882 104.82 24.6423C105.074 24.0922 105.429 23.669 105.886 23.3728C106.347 23.0766 106.889 22.9285 107.511 22.9285ZM107.499 23.7917C106.936 23.7917 106.487 23.9758 106.153 24.344C105.819 24.7122 105.62 25.2263 105.556 25.8865H109.238C109.234 25.4718 109.168 25.1078 109.041 24.7947C108.918 24.4773 108.73 24.2319 108.476 24.0583C108.222 23.8806 107.896 23.7917 107.499 23.7917ZM116.633 28.1082C116.633 28.5525 116.521 28.927 116.296 29.2317C116.076 29.5321 115.759 29.7585 115.344 29.9109C114.934 30.0632 114.443 30.1394 113.872 30.1394C113.385 30.1394 112.964 30.1013 112.608 30.0251C112.253 29.949 111.942 29.8411 111.675 29.7014V28.7302C111.959 28.8699 112.297 28.9968 112.691 29.1111C113.084 29.2253 113.486 29.2825 113.897 29.2825C114.498 29.2825 114.934 29.1851 115.205 28.9905C115.475 28.7958 115.611 28.5313 115.611 28.197C115.611 28.0066 115.556 27.8394 115.446 27.6956C115.34 27.5474 115.16 27.4057 114.906 27.2703C114.652 27.1306 114.301 26.9783 113.853 26.8132C113.408 26.644 113.023 26.4768 112.697 26.3118C112.376 26.1425 112.126 25.9373 111.948 25.696C111.775 25.4548 111.688 25.1417 111.688 24.7566C111.688 24.1684 111.925 23.7177 112.399 23.4045C112.877 23.0872 113.503 22.9285 114.278 22.9285C114.697 22.9285 115.088 22.9708 115.452 23.0554C115.82 23.1358 116.163 23.2458 116.48 23.3855L116.125 24.2297C115.837 24.107 115.53 24.0033 115.205 23.9187C114.879 23.8341 114.547 23.7917 114.208 23.7917C113.721 23.7917 113.347 23.8722 113.084 24.033C112.826 24.1938 112.697 24.4138 112.697 24.6931C112.697 24.9089 112.757 25.0867 112.875 25.2263C112.998 25.366 113.192 25.4972 113.459 25.6199C113.726 25.7426 114.077 25.8865 114.513 26.0515C114.949 26.2123 115.325 26.3795 115.643 26.553C115.96 26.7222 116.203 26.9296 116.373 27.175C116.546 27.4163 116.633 27.7273 116.633 28.1082ZM127.703 26.5212C127.703 27.0925 127.629 27.6025 127.481 28.051C127.333 28.4996 127.119 28.8783 126.84 29.1873C126.561 29.4962 126.222 29.7332 125.824 29.8982C125.431 30.059 124.984 30.1394 124.485 30.1394C124.019 30.1394 123.592 30.059 123.203 29.8982C122.818 29.7332 122.483 29.4962 122.2 29.1873C121.92 28.8783 121.702 28.4996 121.546 28.051C121.394 27.6025 121.317 27.0925 121.317 26.5212C121.317 25.7595 121.446 25.1121 121.705 24.5789C121.963 24.0414 122.331 23.6331 122.809 23.3538C123.292 23.0702 123.865 22.9285 124.529 22.9285C125.164 22.9285 125.718 23.0702 126.192 23.3538C126.671 23.6373 127.041 24.0478 127.303 24.5852C127.57 25.1184 127.703 25.7638 127.703 26.5212ZM122.409 26.5212C122.409 27.0798 122.483 27.5644 122.631 27.9749C122.779 28.3853 123.008 28.7027 123.317 28.927C123.626 29.1513 124.024 29.2634 124.51 29.2634C124.993 29.2634 125.388 29.1513 125.697 28.927C126.01 28.7027 126.241 28.3853 126.389 27.9749C126.537 27.5644 126.611 27.0798 126.611 26.5212C126.611 25.9669 126.537 25.4887 126.389 25.0867C126.241 24.6804 126.013 24.3673 125.704 24.1472C125.395 23.9272 124.995 23.8171 124.504 23.8171C123.78 23.8171 123.249 24.0562 122.911 24.5344C122.576 25.0126 122.409 25.6749 122.409 26.5212ZM132.686 22.9285C132.826 22.9285 132.972 22.9369 133.124 22.9539C133.276 22.9666 133.412 22.9856 133.53 23.011L133.397 23.9885C133.283 23.9589 133.156 23.9356 133.016 23.9187C132.876 23.9018 132.745 23.8933 132.623 23.8933C132.343 23.8933 132.079 23.9504 131.829 24.0647C131.584 24.1747 131.368 24.3355 131.182 24.5471C130.995 24.7545 130.849 25.0063 130.744 25.3025C130.638 25.5945 130.585 25.9203 130.585 26.28V30.0125H129.525V23.0554H130.401L130.515 24.3376H130.56C130.703 24.0795 130.877 23.8446 131.08 23.6331C131.283 23.4172 131.518 23.2458 131.785 23.1189C132.056 22.9919 132.356 22.9285 132.686 22.9285ZM140.697 30.1394C139.817 30.1394 139.118 29.8389 138.602 29.238C138.09 28.6371 137.834 27.7442 137.834 26.5593C137.834 25.3617 138.096 24.4583 138.621 23.8489C139.146 23.2353 139.844 22.9285 140.716 22.9285C141.084 22.9285 141.406 22.9771 141.681 23.0745C141.956 23.1718 142.193 23.303 142.392 23.468C142.59 23.6288 142.758 23.8129 142.893 24.0203H142.969C142.952 23.8891 142.935 23.7092 142.918 23.4807C142.902 23.2522 142.893 23.066 142.893 22.9221V20.1355H143.947V30.0125H143.096L142.938 29.0222H142.893C142.762 29.2296 142.595 29.4179 142.392 29.5872C142.193 29.7564 141.954 29.8918 141.674 29.9934C141.399 30.0907 141.073 30.1394 140.697 30.1394ZM140.862 29.2634C141.607 29.2634 142.133 29.0518 142.442 28.6287C142.751 28.2055 142.906 27.5771 142.906 26.7434V26.553C142.906 25.6685 142.758 24.9893 142.461 24.5154C142.169 24.0414 141.636 23.8044 140.862 23.8044C140.214 23.8044 139.73 24.0541 139.408 24.5535C139.087 25.0486 138.926 25.7257 138.926 26.5847C138.926 27.4395 139.084 28.0997 139.402 28.5652C139.723 29.0307 140.21 29.2634 140.862 29.2634ZM149.342 22.9285C149.482 22.9285 149.628 22.9369 149.78 22.9539C149.933 22.9666 150.068 22.9856 150.187 23.011L150.053 23.9885C149.939 23.9589 149.812 23.9356 149.672 23.9187C149.533 23.9018 149.402 23.8933 149.279 23.8933C149 23.8933 148.735 23.9504 148.485 24.0647C148.24 24.1747 148.024 24.3355 147.838 24.5471C147.652 24.7545 147.506 25.0063 147.4 25.3025C147.294 25.5945 147.241 25.9203 147.241 26.28V30.0125H146.181V23.0554H147.057L147.171 24.3376H147.216C147.36 24.0795 147.533 23.8446 147.736 23.6331C147.939 23.4172 148.174 23.2458 148.441 23.1189C148.712 22.9919 149.012 22.9285 149.342 22.9285ZM154.103 22.9412C154.932 22.9412 155.548 23.1274 155.95 23.4998C156.352 23.8722 156.553 24.4667 156.553 25.2834V30.0125H155.785L155.582 28.9841H155.531C155.337 29.238 155.133 29.4517 154.922 29.6252C154.71 29.7945 154.465 29.9236 154.186 30.0125C153.91 30.0971 153.572 30.1394 153.17 30.1394C152.747 30.1394 152.37 30.0653 152.04 29.9172C151.714 29.7691 151.456 29.5448 151.266 29.2444C151.079 28.9439 150.986 28.5631 150.986 28.1018C150.986 27.4078 151.261 26.8746 151.812 26.5022C152.362 26.1298 153.2 25.9267 154.325 25.8928L155.525 25.842V25.4167C155.525 24.8158 155.396 24.3948 155.138 24.1536C154.88 23.9124 154.516 23.7917 154.046 23.7917C153.682 23.7917 153.335 23.8446 153.005 23.9504C152.675 24.0562 152.362 24.1811 152.065 24.325L151.742 23.5251C152.055 23.3643 152.415 23.2268 152.821 23.1125C153.227 22.9983 153.654 22.9412 154.103 22.9412ZM155.512 26.5847L154.452 26.6292C153.585 26.663 152.973 26.8048 152.618 27.0544C152.262 27.3041 152.084 27.6575 152.084 28.1145C152.084 28.5123 152.205 28.8064 152.446 28.9968C152.688 29.1873 153.007 29.2825 153.405 29.2825C154.023 29.2825 154.528 29.1111 154.922 28.7683C155.315 28.4255 155.512 27.9114 155.512 27.2258V26.5847ZM160.667 33.1355C159.752 33.1355 159.048 32.9641 158.553 32.6213C158.058 32.2828 157.81 31.8067 157.81 31.1931C157.81 30.7572 157.948 30.3848 158.223 30.0759C158.502 29.767 158.887 29.5618 159.378 29.4602C159.196 29.3756 159.039 29.2486 158.908 29.0793C158.781 28.9101 158.718 28.7154 158.718 28.4954C158.718 28.2415 158.788 28.0193 158.927 27.8289C159.071 27.6342 159.289 27.448 159.581 27.2703C159.217 27.1222 158.921 26.8725 158.692 26.5212C158.468 26.1658 158.356 25.7532 158.356 25.2834C158.356 24.7841 158.46 24.3588 158.667 24.0076C158.874 23.6521 159.175 23.3813 159.568 23.1951C159.962 23.0089 160.438 22.9158 160.997 22.9158C161.119 22.9158 161.242 22.9221 161.365 22.9348C161.492 22.9433 161.612 22.9581 161.727 22.9792C161.841 22.9962 161.94 23.0173 162.025 23.0427H164.412V23.7219L163.129 23.8806C163.256 24.0457 163.362 24.2445 163.447 24.4773C163.531 24.71 163.574 24.9682 163.574 25.2517C163.574 25.9457 163.339 26.498 162.869 26.9084C162.399 27.3147 161.754 27.5178 160.933 27.5178C160.738 27.5178 160.54 27.5009 160.336 27.467C160.129 27.5813 159.97 27.7083 159.86 27.8479C159.755 27.9875 159.702 28.1484 159.702 28.3303C159.702 28.4657 159.742 28.5736 159.822 28.6541C159.907 28.7345 160.028 28.7937 160.184 28.8318C160.341 28.8656 160.529 28.8826 160.749 28.8826H161.974C162.732 28.8826 163.311 29.0413 163.713 29.3586C164.12 29.676 164.323 30.1394 164.323 30.7488C164.323 31.519 164.01 32.1093 163.383 32.5198C162.757 32.9303 161.851 33.1355 160.667 33.1355ZM160.698 32.3103C161.274 32.3103 161.75 32.2511 162.126 32.1326C162.507 32.0183 162.791 31.8512 162.977 31.6311C163.167 31.4153 163.263 31.1571 163.263 30.8567C163.263 30.5774 163.199 30.3658 163.072 30.2219C162.945 30.0823 162.759 29.9892 162.514 29.9426C162.268 29.8918 161.968 29.8665 161.612 29.8665H160.406C160.093 29.8665 159.82 29.9151 159.587 30.0125C159.355 30.1098 159.175 30.2537 159.048 30.4441C158.925 30.6345 158.864 30.8715 158.864 31.155C158.864 31.5317 159.022 31.8173 159.34 32.012C159.657 32.2109 160.11 32.3103 160.698 32.3103ZM160.971 26.7498C161.475 26.7498 161.854 26.6228 162.107 26.3689C162.361 26.115 162.488 25.7447 162.488 25.2581C162.488 24.7375 162.359 24.3482 162.101 24.0901C161.843 23.8277 161.462 23.6965 160.958 23.6965C160.476 23.6965 160.104 23.8319 159.841 24.1028C159.583 24.3694 159.454 24.7608 159.454 25.2771C159.454 25.7511 159.585 26.115 159.848 26.3689C160.11 26.6228 160.485 26.7498 160.971 26.7498ZM171.762 22.9412C172.592 22.9412 173.207 23.1274 173.609 23.4998C174.011 23.8722 174.212 24.4667 174.212 25.2834V30.0125H173.444L173.241 28.9841H173.19C172.996 29.238 172.793 29.4517 172.581 29.6252C172.369 29.7945 172.124 29.9236 171.845 30.0125C171.57 30.0971 171.231 30.1394 170.829 30.1394C170.406 30.1394 170.029 30.0653 169.699 29.9172C169.373 29.7691 169.115 29.5448 168.925 29.2444C168.739 28.9439 168.646 28.5631 168.646 28.1018C168.646 27.4078 168.921 26.8746 169.471 26.5022C170.021 26.1298 170.859 25.9267 171.984 25.8928L173.184 25.842V25.4167C173.184 24.8158 173.055 24.3948 172.797 24.1536C172.539 23.9124 172.175 23.7917 171.705 23.7917C171.341 23.7917 170.994 23.8446 170.664 23.9504C170.334 24.0562 170.021 24.1811 169.725 24.325L169.401 23.5251C169.714 23.3643 170.074 23.2268 170.48 23.1125C170.886 22.9983 171.314 22.9412 171.762 22.9412ZM173.171 26.5847L172.111 26.6292C171.244 26.663 170.632 26.8048 170.277 27.0544C169.921 27.3041 169.744 27.6575 169.744 28.1145C169.744 28.5123 169.864 28.8064 170.105 28.9968C170.347 29.1873 170.666 29.2825 171.064 29.2825C171.682 29.2825 172.188 29.1111 172.581 28.7683C172.975 28.4255 173.171 27.9114 173.171 27.2258V26.5847ZM179.678 22.9285C180.503 22.9285 181.127 23.1316 181.55 23.5378C181.973 23.9399 182.185 24.5873 182.185 25.4802V30.0125H181.144V25.55C181.144 24.9703 181.011 24.5365 180.744 24.2488C180.482 23.961 180.078 23.8171 179.532 23.8171C178.762 23.8171 178.22 24.0351 177.907 24.4709C177.594 24.9068 177.437 25.5395 177.437 26.3689V30.0125H176.383V23.0554H177.234L177.393 24.0583H177.45C177.598 23.8129 177.786 23.6077 178.015 23.4426C178.243 23.2734 178.499 23.1464 178.783 23.0618C179.066 22.9729 179.365 22.9285 179.678 22.9285ZM186.832 30.1394C185.951 30.1394 185.253 29.8389 184.737 29.238C184.225 28.6371 183.969 27.7442 183.969 26.5593C183.969 25.3617 184.231 24.4583 184.756 23.8489C185.281 23.2353 185.979 22.9285 186.851 22.9285C187.219 22.9285 187.54 22.9771 187.815 23.0745C188.09 23.1718 188.327 23.303 188.526 23.468C188.725 23.6288 188.892 23.8129 189.028 24.0203H189.104C189.087 23.8891 189.07 23.7092 189.053 23.4807C189.036 23.2522 189.028 23.066 189.028 22.9221V20.1355H190.082V30.0125H189.231L189.072 29.0222H189.028C188.897 29.2296 188.729 29.4179 188.526 29.5872C188.327 29.7564 188.088 29.8918 187.809 29.9934C187.534 30.0907 187.208 30.1394 186.832 30.1394ZM186.997 29.2634C187.741 29.2634 188.268 29.0518 188.577 28.6287C188.886 28.2055 189.041 27.5771 189.041 26.7434V26.553C189.041 25.6685 188.892 24.9893 188.596 24.5154C188.304 24.0414 187.771 23.8044 186.997 23.8044C186.349 23.8044 185.865 24.0541 185.543 24.5535C185.221 25.0486 185.061 25.7257 185.061 26.5847C185.061 27.4395 185.219 28.0997 185.537 28.5652C185.858 29.0307 186.345 29.2634 186.997 29.2634ZM198.168 30.1394C197.288 30.1394 196.59 29.8389 196.074 29.238C195.562 28.6371 195.306 27.7442 195.306 26.5593C195.306 25.3617 195.568 24.4583 196.093 23.8489C196.618 23.2353 197.316 22.9285 198.188 22.9285C198.556 22.9285 198.877 22.9771 199.152 23.0745C199.427 23.1718 199.664 23.303 199.863 23.468C200.062 23.6288 200.229 23.8129 200.365 24.0203H200.441C200.424 23.8891 200.407 23.7092 200.39 23.4807C200.373 23.2522 200.365 23.066 200.365 22.9221V20.1355H201.418V30.0125H200.568L200.409 29.0222H200.365C200.234 29.2296 200.066 29.4179 199.863 29.5872C199.664 29.7564 199.425 29.8918 199.146 29.9934C198.871 30.0907 198.545 30.1394 198.168 30.1394ZM198.333 29.2634C199.078 29.2634 199.605 29.0518 199.914 28.6287C200.223 28.2055 200.377 27.5771 200.377 26.7434V26.553C200.377 25.6685 200.229 24.9893 199.933 24.5154C199.641 24.0414 199.108 23.8044 198.333 23.8044C197.686 23.8044 197.201 24.0541 196.88 24.5535C196.558 25.0486 196.397 25.7257 196.397 26.5847C196.397 27.4395 196.556 28.0997 196.874 28.5652C197.195 29.0307 197.682 29.2634 198.333 29.2634ZM206.814 22.9285C206.954 22.9285 207.1 22.9369 207.252 22.9539C207.404 22.9666 207.54 22.9856 207.658 23.011L207.525 23.9885C207.411 23.9589 207.284 23.9356 207.144 23.9187C207.004 23.9018 206.873 23.8933 206.75 23.8933C206.471 23.8933 206.207 23.9504 205.957 24.0647C205.712 24.1747 205.496 24.3355 205.31 24.5471C205.123 24.7545 204.977 25.0063 204.872 25.3025C204.766 25.5945 204.713 25.9203 204.713 26.28V30.0125H203.653V23.0554H204.529L204.643 24.3376H204.688C204.831 24.0795 205.005 23.8446 205.208 23.6331C205.411 23.4172 205.646 23.2458 205.913 23.1189C206.183 22.9919 206.484 22.9285 206.814 22.9285ZM214.971 26.5212C214.971 27.0925 214.897 27.6025 214.749 28.051C214.6 28.4996 214.387 28.8783 214.107 29.1873C213.828 29.4962 213.49 29.7332 213.092 29.8982C212.698 30.059 212.252 30.1394 211.752 30.1394C211.287 30.1394 210.86 30.059 210.47 29.8982C210.085 29.7332 209.751 29.4962 209.467 29.1873C209.188 28.8783 208.97 28.4996 208.813 28.051C208.661 27.6025 208.585 27.0925 208.585 26.5212C208.585 25.7595 208.714 25.1121 208.972 24.5789C209.23 24.0414 209.598 23.6331 210.077 23.3538C210.559 23.0702 211.132 22.9285 211.797 22.9285C212.432 22.9285 212.986 23.0702 213.46 23.3538C213.938 23.6373 214.308 24.0478 214.571 24.5852C214.837 25.1184 214.971 25.7638 214.971 26.5212ZM209.677 26.5212C209.677 27.0798 209.751 27.5644 209.899 27.9749C210.047 28.3853 210.276 28.7027 210.584 28.927C210.893 29.1513 211.291 29.2634 211.778 29.2634C212.26 29.2634 212.656 29.1513 212.965 28.927C213.278 28.7027 213.509 28.3853 213.657 27.9749C213.805 27.5644 213.879 27.0798 213.879 26.5212C213.879 25.9669 213.805 25.4887 213.657 25.0867C213.509 24.6804 213.28 24.3673 212.971 24.1472C212.662 23.9272 212.262 23.8171 211.771 23.8171C211.048 23.8171 210.517 24.0562 210.178 24.5344C209.844 25.0126 209.677 25.6749 209.677 26.5212ZM220.062 22.9285C220.929 22.9285 221.621 23.2268 222.137 23.8235C222.653 24.4202 222.912 25.3173 222.912 26.5149C222.912 27.3062 222.793 27.9706 222.556 28.5081C222.319 29.0455 221.985 29.4517 221.553 29.7268C221.126 30.0019 220.62 30.1394 220.036 30.1394C219.668 30.1394 219.344 30.0907 219.065 29.9934C218.786 29.8961 218.547 29.7649 218.348 29.5999C218.149 29.4348 217.984 29.255 217.853 29.0603H217.776C217.789 29.2253 217.804 29.4242 217.821 29.657C217.842 29.8897 217.853 30.0929 217.853 30.2664V33.1228H216.792V23.0554H217.662L217.802 24.0837H217.853C217.988 23.8722 218.153 23.6796 218.348 23.5061C218.542 23.3284 218.779 23.1887 219.059 23.0872C219.342 22.9814 219.676 22.9285 220.062 22.9285ZM219.877 23.8171C219.395 23.8171 219.006 23.9102 218.709 24.0964C218.417 24.2826 218.204 24.5619 218.068 24.9343C217.933 25.3025 217.861 25.7659 217.853 26.3245V26.5276C217.853 27.1158 217.916 27.613 218.043 28.0193C218.174 28.4255 218.388 28.7345 218.684 28.946C218.985 29.1576 219.387 29.2634 219.89 29.2634C220.322 29.2634 220.681 29.1471 220.969 28.9143C221.257 28.6816 221.471 28.3578 221.61 27.9431C221.754 27.5242 221.826 27.0439 221.826 26.5022C221.826 25.6812 221.665 25.0295 221.344 24.5471C221.026 24.0605 220.538 23.8171 219.877 23.8171ZM229.183 20.1355V23.0872C229.183 23.2564 229.179 23.4278 229.17 23.6013C229.162 23.7706 229.147 23.9272 229.126 24.071H229.196C229.34 23.8256 229.522 23.6204 229.742 23.4553C229.966 23.2861 230.22 23.1591 230.503 23.0745C230.787 22.9856 231.087 22.9412 231.405 22.9412C231.963 22.9412 232.429 23.03 232.801 23.2078C233.178 23.3855 233.459 23.6606 233.646 24.033C233.836 24.4054 233.931 24.8878 233.931 25.4802V30.0125H232.89V25.55C232.89 24.9703 232.757 24.5365 232.49 24.2488C232.228 23.961 231.824 23.8171 231.278 23.8171C230.762 23.8171 230.349 23.9166 230.04 24.1155C229.735 24.3101 229.515 24.5979 229.38 24.9788C229.249 25.3596 229.183 25.8251 229.183 26.3752V30.0125H228.129V20.1355H229.183ZM238.781 22.9285C239.373 22.9285 239.881 23.0597 240.304 23.322C240.727 23.5844 241.051 23.9526 241.275 24.4265C241.5 24.8962 241.612 25.4464 241.612 26.0769V26.7307H236.807C236.819 27.5474 237.022 28.1695 237.416 28.5969C237.81 29.0243 238.364 29.238 239.079 29.238C239.519 29.238 239.909 29.1978 240.247 29.1174C240.586 29.037 240.937 28.9185 241.301 28.762V29.6887C240.95 29.8453 240.6 29.9596 240.253 30.0315C239.911 30.1034 239.504 30.1394 239.035 30.1394C238.366 30.1394 237.782 30.004 237.283 29.7332C236.788 29.4581 236.403 29.0561 236.127 28.5271C235.852 27.9981 235.715 27.3507 235.715 26.5847C235.715 25.8357 235.84 25.1882 236.089 24.6423C236.343 24.0922 236.699 23.669 237.156 23.3728C237.617 23.0766 238.159 22.9285 238.781 22.9285ZM238.768 23.7917C238.205 23.7917 237.757 23.9758 237.422 24.344C237.088 24.7122 236.889 25.2263 236.826 25.8865H240.507C240.503 25.4718 240.438 25.1078 240.311 24.7947C240.188 24.4773 240 24.2319 239.746 24.0583C239.492 23.8806 239.166 23.7917 238.768 23.7917ZM246.563 22.9285C246.703 22.9285 246.849 22.9369 247.001 22.9539C247.153 22.9666 247.289 22.9856 247.407 23.011L247.274 23.9885C247.16 23.9589 247.033 23.9356 246.893 23.9187C246.753 23.9018 246.622 23.8933 246.5 23.8933C246.22 23.8933 245.956 23.9504 245.706 24.0647C245.461 24.1747 245.245 24.3355 245.059 24.5471C244.872 24.7545 244.726 25.0063 244.621 25.3025C244.515 25.5945 244.462 25.9203 244.462 26.28V30.0125H243.402V23.0554H244.278L244.392 24.3376H244.437C244.58 24.0795 244.754 23.8446 244.957 23.6331C245.16 23.4172 245.395 23.2458 245.662 23.1189C245.932 22.9919 246.233 22.9285 246.563 22.9285ZM251.4 22.9285C251.992 22.9285 252.5 23.0597 252.923 23.322C253.347 23.5844 253.67 23.9526 253.895 24.4265C254.119 24.8962 254.231 25.4464 254.231 26.0769V26.7307H249.426C249.438 27.5474 249.642 28.1695 250.035 28.5969C250.429 29.0243 250.983 29.238 251.698 29.238C252.138 29.238 252.528 29.1978 252.866 29.1174C253.205 29.037 253.556 28.9185 253.92 28.762V29.6887C253.569 29.8453 253.22 29.9596 252.873 30.0315C252.53 30.1034 252.124 30.1394 251.654 30.1394C250.985 30.1394 250.401 30.004 249.902 29.7332C249.407 29.4581 249.022 29.0561 248.747 28.5271C248.472 27.9981 248.334 27.3507 248.334 26.5847C248.334 25.8357 248.459 25.1882 248.708 24.6423C248.962 24.0922 249.318 23.669 249.775 23.3728C250.236 23.0766 250.778 22.9285 251.4 22.9285ZM251.387 23.7917C250.824 23.7917 250.376 23.9758 250.042 24.344C249.707 24.7122 249.508 25.2263 249.445 25.8865H253.126C253.122 25.4718 253.057 25.1078 252.93 24.7947C252.807 24.4773 252.619 24.2319 252.365 24.0583C252.111 23.8806 251.785 23.7917 251.387 23.7917Z" fill="#292929"/>
<path d="M30.4687 18.8166C29.6767 17.8487 28.6041 17.3052 27.4859 17.3052C26.3677 17.3052 25.2951 17.8487 24.5032 18.8166L19.7227 24.679C19.4768 24.9786 19.2818 25.3352 19.1492 25.728C19.0165 26.1207 18.9488 26.5419 18.9499 26.967C18.9499 27.3914 19.0181 27.8116 19.1507 28.2036C19.2832 28.5957 19.4775 28.9518 19.7224 29.2517C19.9673 29.5516 20.2581 29.7894 20.578 29.9514C20.8979 30.1135 21.2407 30.1966 21.5868 30.1961C22.2616 30.1961 22.9353 29.8833 23.4499 29.2525L25.6872 26.5107C26.082 26.0255 26.3037 25.3682 26.3037 24.6828C26.3037 23.9975 26.082 23.3402 25.6872 22.855L21.959 27.4246C21.86 27.546 21.7258 27.6142 21.5858 27.6142C21.4458 27.6142 21.3115 27.546 21.2125 27.4246C21.1135 27.3033 21.0579 27.1387 21.0579 26.967C21.0579 26.7954 21.1135 26.6308 21.2125 26.5094L25.994 20.6445C26.3903 20.1609 26.9268 19.8895 27.4859 19.8895C28.0451 19.8895 28.5815 20.1609 28.9778 20.6445C29.3724 21.1298 29.5939 21.7871 29.5939 22.4724C29.5939 23.1576 29.3724 23.8149 28.9778 24.3002L24.1942 30.1651L21.5215 33.4421C21.1256 33.9258 20.5895 34.1974 20.0306 34.1974C19.4717 34.1974 18.9356 33.9258 18.5398 33.4421C18.1447 32.9571 17.9228 32.2997 17.9228 31.6142C17.9228 30.9288 18.1447 30.2714 18.5398 29.7864L18.6399 29.6623C18.1592 28.8677 17.8997 27.9046 17.8998 26.9153L17.0489 27.9585C16.2591 28.9287 15.8154 30.2434 15.8154 31.6142C15.8154 32.985 16.2591 34.2998 17.0489 35.2699C17.8703 36.2769 18.951 36.7824 20.0306 36.7824C21.1103 36.7824 22.191 36.2769 23.0123 35.2699L30.4687 26.1281C31.2585 25.1579 31.7021 23.8431 31.7021 22.4724C31.7021 21.1016 31.2585 19.7868 30.4687 18.8166Z" fill="#0385FF"/>
<rect x="353.206" y="0.500244" width="131.793" height="53" rx="5" fill="#0266F4"/>
<path d="M414.12 31.5002L412.977 28.5549H409.257L408.121 31.5002H407.029L410.66 22.1819H411.631L415.237 31.5002H414.12ZM412.653 27.5964L411.568 24.6702C411.542 24.594 411.5 24.4692 411.441 24.2957C411.386 24.1222 411.329 23.9423 411.27 23.7561C411.21 23.5699 411.162 23.4197 411.124 23.3054C411.081 23.4789 411.035 23.6524 410.984 23.8259C410.937 23.9952 410.891 24.1539 410.844 24.302C410.798 24.4459 410.757 24.5686 410.724 24.6702L409.619 27.5964H412.653ZM418.842 31.6272C417.962 31.6272 417.264 31.3267 416.748 30.7258C416.236 30.1249 415.979 29.232 415.979 28.0471C415.979 26.8495 416.242 25.946 416.767 25.3367C417.291 24.7231 417.99 24.4163 418.861 24.4163C419.229 24.4163 419.551 24.4649 419.826 24.5623C420.101 24.6596 420.338 24.7908 420.537 24.9558C420.736 25.1166 420.903 25.3007 421.039 25.5081H421.115C421.098 25.3769 421.081 25.197 421.064 24.9685C421.047 24.74 421.039 24.5538 421.039 24.4099V21.6233H422.092V31.5002H421.242L421.083 30.51H421.039C420.907 30.7174 420.74 30.9057 420.537 31.075C420.338 31.2442 420.099 31.3796 419.82 31.4812C419.545 31.5785 419.219 31.6272 418.842 31.6272ZM419.007 30.7512C419.752 30.7512 420.279 30.5396 420.588 30.1165C420.897 29.6933 421.051 29.0649 421.051 28.2312V28.0408C421.051 27.1563 420.903 26.4771 420.607 26.0032C420.315 25.5292 419.782 25.2922 419.007 25.2922C418.36 25.2922 417.875 25.5419 417.554 26.0413C417.232 26.5364 417.071 27.2135 417.071 28.0725C417.071 28.9273 417.23 29.5875 417.547 30.053C417.869 30.5185 418.356 30.7512 419.007 30.7512ZM426.802 31.6272C425.922 31.6272 425.224 31.3267 424.708 30.7258C424.195 30.1249 423.939 29.232 423.939 28.0471C423.939 26.8495 424.202 25.946 424.727 25.3367C425.251 24.7231 425.95 24.4163 426.821 24.4163C427.189 24.4163 427.511 24.4649 427.786 24.5623C428.061 24.6596 428.298 24.7908 428.497 24.9558C428.696 25.1166 428.863 25.3007 428.999 25.5081H429.075C429.058 25.3769 429.041 25.197 429.024 24.9685C429.007 24.74 428.999 24.5538 428.999 24.4099V21.6233H430.052V31.5002H429.202L429.043 30.51H428.999C428.867 30.7174 428.7 30.9057 428.497 31.075C428.298 31.2442 428.059 31.3796 427.78 31.4812C427.505 31.5785 427.179 31.6272 426.802 31.6272ZM426.967 30.7512C427.712 30.7512 428.239 30.5396 428.548 30.1165C428.857 29.6933 429.011 29.0649 429.011 28.2312V28.0408C429.011 27.1563 428.863 26.4771 428.567 26.0032C428.275 25.5292 427.742 25.2922 426.967 25.2922C426.32 25.2922 425.835 25.5419 425.514 26.0413C425.192 26.5364 425.031 27.2135 425.031 28.0725C425.031 28.9273 425.19 29.5875 425.507 30.053C425.829 30.5185 426.316 30.7512 426.967 30.7512Z" fill="white"/>
</svg>
